HIERARCHY
ROOT hip
{
	OFFSET 0.000000 0.000000 0.000000 
	CHANNELS 6 Xposition Yposition Zposition Xrotation Zrotation Yrotation
	JOINT abdomen
	{
		OFFSET 0.000000 3.402643 0.000000 
		CHANNELS 3 Xrotation Zrotation Yrotation
		JOINT chest
		{
			OFFSET 0.000000 8.438565 -0.680529 
			CHANNELS 3 Xrotation Zrotation Yrotation
			JOINT neck
			{
				OFFSET 0.000000 10.207942 -0.272212 
				CHANNELS 3 Xrotation Zrotation Yrotation
				JOINT head
				{
					OFFSET 0.000000 3.130431 0.000000 
					CHANNELS 3 Xrotation Zrotation Yrotation
					End Site
					{
						OFFSET 0.000000 3.130435 0.000000 
					}
				}
			}
			JOINT lCollar
			{
				OFFSET 3.470700 6.669187 -0.816635 
				CHANNELS 3 Yrotation Zrotation Xrotation
				JOINT lShldr
				{
					OFFSET 3.198488 0.000000 0.000000 
					CHANNELS 3 Zrotation Yrotation Xrotation
					JOINT lForeArm
					{
						OFFSET 10.139888 0.000000 0.000000 
						CHANNELS 3 Yrotation Zrotation Xrotation
						JOINT lHand
						{
							OFFSET 8.370511 0.000000 0.000000 
							CHANNELS 3 Zrotation Yrotation Xrotation
							End Site
							{
								OFFSET 4.083176 0.000000 0.000000 
							}
						}
					}
				}
			}
			JOINT rCollar
			{
				OFFSET -3.470700 6.669187 -0.816635 
				CHANNELS 3 Yrotation Zrotation Xrotation
				JOINT rShldr
				{
					OFFSET -3.198488 0.000000 0.000000 
					CHANNELS 3 Zrotation Yrotation Xrotation
					JOINT rForeArm
					{
						OFFSET -10.139888 0.000000 0.000000 
						CHANNELS 3 Yrotation Zrotation Xrotation
						JOINT rHand
						{
							OFFSET -8.370511 0.000000 0.000000 
							CHANNELS 3 Zrotation Yrotation Xrotation
							End Site
							{
								OFFSET -4.083176 0.000000 0.000000 
							}
						}
					}
				}
			}
		}
	}
	JOINT lThigh
	{
		OFFSET 5.308129 -1.633274 1.361059 
		CHANNELS 3 Xrotation Zrotation Yrotation
		JOINT lShin
		{
			OFFSET -2.041588 -20.007561 0.000000 
			CHANNELS 3 Xrotation Zrotation Yrotation
			JOINT lFoot
			{
				OFFSET 0.000000 -19.190928 -1.224953 
				CHANNELS 3 Xrotation Yrotation Zrotation
				End Site
				{
					OFFSET 0.000000 -2.449906 4.627600 
				}
			}
		}
	}
	JOINT rThigh
	{
		OFFSET -5.308129 -1.633274 1.361059 
		CHANNELS 3 Xrotation Zrotation Yrotation
		JOINT rShin
		{
			OFFSET 2.041588 -20.007561 0.000000 
			CHANNELS 3 Xrotation Zrotation Yrotation
			JOINT rFoot
			{
				OFFSET 0.000000 -19.190928 -1.224953 
				CHANNELS 3 Xrotation Yrotation Zrotation
				End Site
				{
					OFFSET 0.000000 -2.449906 4.627600 
				}
			}
		}
	}
}
MOTION
Frames: 11
Frame Time: 0.016667
0.299011 41.512165 -1.972166 2.073730 -3.288870 13.806400 -19.372700 4.821980 1.235340 10.260400 2.872980 0.835905 19.103600 5.522690 -9.239690 14.568300 6.210040 -4.467980 2.000000 -2.000000 0.000000 -75.240700 -42.558998 -145.320999 109.151001 -0.166794 0.148180 -179.903000 -179.871994 -4.587670 -2.000000 2.000000 0.000000 51.385700 12.305700 154.147995 -136.787003 0.122321 0.077171 -0.073217 0.053124 -156.257996 -19.690172 3.907767 -8.441144 36.147480 2.640148 2.593611 -16.489300 5.494748 0.828035 -8.816011 -0.218025 -9.363225 24.916521 -3.030171 -1.874106 -22.658548 -4.562272 -4.500652 
0.187027 41.552765 -1.970908 2.132250 -3.210670 14.850900 -19.403099 4.598520 1.446140 10.174500 2.632030 0.934035 18.891600 6.898710 -9.766310 14.597700 6.631990 -4.738040 2.000000 -2.000000 0.000000 -75.609200 -42.283600 -144.306000 109.385002 -0.166228 0.147982 -179.903000 -179.871994 -4.480250 -2.000000 2.000000 0.000000 49.821499 13.276600 152.246002 -135.195999 0.124772 0.079707 -0.073472 0.053846 -156.531006 -19.827541 3.760454 -8.905539 35.813122 2.647288 2.572275 -16.110981 5.292489 0.728667 -8.792077 -0.207333 -9.586221 24.946522 -3.029235 -1.883252 -23.153969 -4.938838 -4.757888 
0.017432 41.580475 -1.985613 2.297630 -2.780970 15.913500 -19.275600 4.109040 1.977420 10.227300 2.104040 1.189130 17.980200 9.246970 -10.812500 14.468100 7.355720 -5.226390 2.000000 -2.000000 0.000000 -76.103401 -41.509998 -143.220001 110.419998 -0.163740 0.147081 -179.901993 -179.871002 -4.978310 -2.000000 2.000000 0.000000 46.117802 15.187100 149.281006 -130.694000 0.132072 0.086501 -0.073601 0.054207 -156.667999 -19.895969 3.296437 -9.159336 35.282188 2.654341 2.534440 -15.720889 5.151332 0.686126 -9.092477 -0.572210 -9.786703 25.491297 -3.006920 -1.910870 -23.642128 -5.117828 -4.972886 
-0.152163 41.608204 -2.000318 2.463030 -2.361100 16.978201 -19.149099 3.618650 2.506170 10.279300 1.575880 1.452680 17.033501 11.581300 -11.896900 14.339700 8.080040 -5.708390 2.000000 -2.000000 0.000000 -76.578201 -40.726700 -142.147003 111.464996 -0.161245 0.146126 -179.901001 -179.869995 -5.476360 -2.000000 2.000000 0.000000 42.276798 16.912100 146.160004 -126.192001 0.139883 0.092701 -0.073740 0.054593 -156.813995 -20.033878 2.830459 -9.437996 34.891792 2.637025 2.535792 -15.404060 5.015726 0.618812 -9.408288 -0.952793 -9.986032 26.123177 -2.998015 -1.949850 -24.219683 -5.323527 -5.158205 
-0.274153 41.588219 -2.032200 2.638000 -1.785220 17.046400 -18.874399 3.012190 3.087040 10.555400 0.894404 1.736830 16.087299 13.548100 -12.690300 14.249200 8.707680 -6.009660 2.000000 -2.000000 0.000000 -76.761200 -39.496300 -142.149002 112.969002 -0.157685 0.144672 -179.899994 -179.878998 -5.788870 -2.000000 2.000000 0.000000 38.437401 18.790899 144.227005 -120.019997 0.151333 0.100166 -0.074547 0.056773 -157.643997 -20.081303 2.352067 -9.017876 34.785057 2.622697 2.533398 -15.310268 5.116479 0.668496 -9.927521 -1.542968 -9.810008 27.081114 -2.982898 -2.021785 -24.483736 -5.158554 -5.092726 
-0.396140 41.568111 -2.064093 2.822910 -1.219220 17.117399 -18.601601 2.412590 3.658030 10.810500 0.211743 2.024180 15.110000 15.507000 -13.520800 14.149800 9.335980 -6.316190 2.000000 -2.000000 0.000000 -76.944298 -38.265800 -142.160995 114.473000 -0.154165 0.143124 -179.899994 -179.878998 -6.101370 -2.000000 2.000000 0.000000 34.500000 20.542900 142.141006 -113.858002 0.163500 0.106348 -0.075395 0.058966 -158.483994 -20.095514 1.885480 -8.571323 34.628155 2.615239 2.514494 -15.235879 5.220830 0.710771 -10.506954 -2.136588 -9.621777 28.106129 -2.974978 -2.084565 -24.751772 -5.008941 -5.036343 
-0.508579 41.483418 -2.123160 2.968770 -0.234060 15.905800 -18.224400 1.329930 4.524660 11.209100 -1.127410 2.460920 14.173400 17.052900 -14.156300 13.985100 9.764600 -6.502630 2.000000 -2.000000 0.000000 -76.921204 -35.064800 -143.296005 117.481003 -0.147253 0.139756 -179.899994 -179.878998 -5.867000 -2.000000 2.000000 0.000000 28.845301 23.720200 140.300995 -102.676003 0.186990 0.114101 -0.076770 0.062333 -159.783005 -19.888489 1.336624 -7.050235 34.750420 2.570982 2.548159 -15.439284 5.537371 0.859583 -11.389522 -3.125417 -8.695930 29.665339 -2.930126 -2.169436 -24.700375 -4.483776 -4.690273 
-0.621016 41.398727 -2.182239 3.095970 0.750856 14.698900 -17.862000 0.258080 5.390870 11.593200 -2.469510 2.889030 13.217400 18.599501 -14.803400 13.820900 10.203200 -6.691560 2.000000 -2.000000 0.000000 -76.986397 -31.854000 -144.376007 120.478996 -0.140548 0.136042 -179.901001 -179.869995 -5.632610 -2.000000 2.000000 0.000000 22.936100 26.722200 138.080002 -91.484802 0.211559 0.117151 -0.078210 0.065643 -161.072006 -19.750334 0.768293 -5.515679 34.998840 2.535955 2.572168 -15.711710 5.849693 1.023418 -12.250622 -4.087924 -7.736001 31.241920 -2.905258 -2.277884 -24.727688 -3.946535 -4.364188 
-0.659413 41.301273 -2.199056 3.057390 1.267720 13.056200 -17.624500 -0.373985 5.983790 11.928700 -3.331100 3.180640 12.976500 18.812099 -14.859100 13.729100 10.129000 -6.653450 2.000000 -2.000000 0.000000 -77.198097 -28.057400 -145.526001 123.515999 -0.133964 0.131927 -179.901001 -179.869995 -5.349410 -2.000000 2.000000 0.000000 17.654800 29.242500 137.654999 -81.182198 0.235807 0.135108 -0.079304 0.068030 -162.009995 -19.633139 0.716721 -4.001458 35.639065 2.505681 2.610058 -16.319685 6.182609 1.200188 -12.978073 -4.459220 -6.337524 32.493565 -2.873068 -2.358560 -24.609201 -3.327084 -3.976396 
-0.697809 41.203819 -2.215850 3.009290 1.794400 11.403200 -17.388300 -1.008110 6.570420 12.262800 -4.194110 3.471950 12.735200 19.024700 -14.913400 13.637400 10.054800 -6.613380 2.000000 -2.000000 0.000000 -77.478897 -24.270599 -146.660995 126.553001 -0.127607 0.127469 -179.901993 -179.871002 -5.056440 -2.000000 2.000000 0.000000 12.216900 31.714500 136.951004 -70.879402 0.259632 0.129180 -0.080449 0.070423 -162.957001 -19.476742 0.672147 -2.462101 36.202065 2.474391 2.677955 -16.895864 6.481126 1.381588 -13.714989 -4.809497 -4.935133 33.724133 -2.841642 -2.419410 -24.484715 -2.710611 -3.593080 
-0.674938 41.046940 -2.180373 2.951120 2.057820 9.422750 -17.455999 -1.605470 6.895020 12.144700 -5.062420 3.657440 13.022900 19.260000 -14.502200 13.732200 9.916980 -6.345600 2.000000 -2.000000 0.000000 -78.412804 -18.686300 -147.481995 130.302994 -0.120097 0.121510 -179.903000 -179.871002 -4.724390 -2.000000 2.000000 0.000000 11.020300 32.355598 138.886002 -67.568901 0.267017 0.126378 -0.078502 0.066291 -161.326004 -19.497227 0.891448 -0.794199 37.117531 2.434608 2.735484 -17.587193 6.982769 1.634383 -14.537815 -4.825119 -3.230361 34.988026 -2.773149 -2.516337 -24.335695 -2.087340 -3.205791 
